<svg width="60" height="60" viewBox="0 0 60 60" fill="none" xmlns="http://www.w3.org/2000/svg">
  <path d="M44.6685 3.93C44.1075 3.60609 43.3894 3.79851 43.0655 4.35949C42.7416 4.92163 42.934 5.63858 43.495 5.96248C44.056 6.28756 44.7741 6.09514 45.098 5.53299C45.4219 4.97214 45.2295 4.25507 44.6685 3.93Z" fill="#399A3A" />
  <path d="M29.9997 0C29.3519 0 28.8262 0.5257 28.8262 1.17351C28.8262 1.82132 29.3519 2.34702 29.9997 2.34702C30.6475 2.34702 31.1732 1.82132 31.1732 1.17351C31.1732 0.5257 30.6475 0 29.9997 0Z" fill="#399A3A" />
  <path d="M29.9997 31.2148C29.3519 31.2148 28.8262 31.7405 28.8262 32.3883C28.8262 33.0361 29.3519 33.5618 29.9997 33.5618C30.6475 33.5618 31.1732 33.0361 31.1732 32.3883C31.1732 31.7407 30.6475 31.2148 29.9997 31.2148Z" fill="#399A3A" />
  <path d="M16.9349 4.35949C16.611 3.79851 15.8929 3.60609 15.3319 3.93C14.7709 4.25507 14.5785 4.97202 14.9024 5.53299C15.2263 6.09514 15.9444 6.28756 16.5054 5.96248C17.0663 5.63858 17.2588 4.92151 16.9349 4.35949Z" fill="#399A3A" />
  <path d="M29.9997 4.69409C29.3516 4.69409 28.8262 5.21944 28.8262 5.8676V10.5616C28.8262 11.2098 29.3516 11.7352 29.9997 11.7352C30.6477 11.7352 31.1732 11.2098 31.1732 10.5616V5.86748C31.1732 5.21944 30.6477 4.69409 29.9997 4.69409Z" fill="#399A3A" />
  <path d="M21.6288 12.4905L19.2819 8.4244C18.9577 7.86308 18.2402 7.6703 17.6789 7.99468C17.1176 8.3187 16.9251 9.03623 17.2492 9.59767L19.5962 13.6639C19.8137 14.0405 20.208 14.2509 20.6137 14.2509C20.8126 14.2509 21.0145 14.2002 21.1992 14.0935C21.7604 13.7695 21.9528 13.0519 21.6288 12.4905Z" fill="#399A3A" />
  <path d="M42.3213 7.99509C41.7596 7.67095 41.0423 7.86337 40.7183 8.42481L38.3712 12.491C38.0472 13.0522 38.2396 13.7698 38.801 14.0939C38.9858 14.2005 39.1874 14.2512 39.3864 14.2512C39.7921 14.2512 40.1865 14.0406 40.404 13.6642L42.751 9.59809C43.075 9.03676 42.8826 8.31899 42.3213 7.99509Z" fill="#399A3A" />
  <path d="M54.6429 32.3805C54.6428 32.3661 54.6419 32.3518 54.6412 32.3372C54.6405 32.3222 54.6396 32.3072 54.6384 32.2921C54.6376 32.2825 54.6375 32.2728 54.6364 32.2633C54.635 32.2502 54.6327 32.237 54.6309 32.224C54.6288 32.2094 54.6264 32.1947 54.6238 32.18C54.6218 32.1689 54.6205 32.1578 54.6182 32.1469C54.6158 32.136 54.6126 32.1252 54.6101 32.1143C54.6064 32.0993 54.6025 32.0843 54.5982 32.0693C54.5948 32.0573 54.5919 32.045 54.5882 32.033C54.5855 32.0246 54.5819 32.0163 54.579 32.0078C54.5735 31.9919 54.5676 31.9761 54.5616 31.9602C54.5566 31.9477 54.5521 31.935 54.5468 31.9227C54.544 31.9163 54.5406 31.91 54.5376 31.9035C54.5301 31.887 54.5222 31.8708 54.514 31.8545C54.5076 31.8421 54.5016 31.8297 54.4948 31.8176C54.4936 31.8155 54.4928 31.8134 54.4916 31.8113L47.4598 19.3721C47.4563 19.3659 47.4518 19.3607 47.4482 19.3546C47.4286 19.3212 47.4073 19.2887 47.3843 19.2574C47.3784 19.2492 47.3726 19.2409 47.3665 19.2328C47.3373 19.195 47.306 19.1583 47.2722 19.1241C47.2717 19.1236 47.2711 19.1231 47.2705 19.1225C47.2384 19.0902 47.2036 19.0601 47.1675 19.0314C47.1585 19.0242 47.1494 19.0175 47.1402 19.0107C47.1112 18.9891 47.0807 18.9687 47.0492 18.9493C47.039 18.9431 47.029 18.9366 47.0186 18.9307C46.9786 18.908 46.9374 18.8868 46.894 18.8685C46.8935 18.8682 46.8931 18.868 46.8925 18.8678C46.8924 18.8677 46.8921 18.8677 46.892 18.8675C46.8484 18.8493 46.8041 18.8347 46.7597 18.822C46.7473 18.8184 46.7348 18.8157 46.7222 18.8126C46.6873 18.8038 46.6523 18.7968 46.6171 18.7913C46.6046 18.7894 46.5923 18.7873 46.5796 18.7857C46.5326 18.78 46.4856 18.7764 46.4389 18.7764C46.4387 18.7764 46.4386 18.7764 46.4384 18.7764H46.4382C46.4362 18.7764 46.4343 18.7764 46.4323 18.7764H29.9998H29.9967H13.5728C13.5241 18.7763 13.4755 18.78 13.4266 18.786C13.4153 18.7874 13.4041 18.7894 13.3929 18.7911C13.3574 18.7966 13.3219 18.8038 13.2865 18.8127C13.2734 18.816 13.2603 18.819 13.2475 18.8228C13.2091 18.8338 13.171 18.8469 13.1333 18.862C13.127 18.8646 13.1205 18.8664 13.1142 18.8691C13.1132 18.8695 13.112 18.8698 13.1109 18.8702C13.0685 18.8883 13.0282 18.9091 12.9892 18.9315C12.9793 18.9372 12.9701 18.9435 12.9605 18.9493C12.9288 18.9686 12.8984 18.9891 12.8692 19.011C12.8596 19.0181 12.8501 19.0254 12.8406 19.0329C12.808 19.0588 12.7768 19.0862 12.7475 19.1152C12.7437 19.1189 12.7396 19.1223 12.7358 19.1262C12.7022 19.1603 12.6709 19.1965 12.6419 19.2342C12.6364 19.2414 12.6315 19.249 12.6261 19.2562C12.603 19.2878 12.5815 19.3205 12.5618 19.3541C12.5583 19.3602 12.5538 19.3655 12.5503 19.3716L5.5232 31.7849C5.52297 31.7853 5.52285 31.7855 5.52262 31.7859L5.50867 31.8104C5.5075 31.8125 5.50668 31.8147 5.50539 31.8168C5.49812 31.8298 5.49156 31.8432 5.48477 31.8565C5.47633 31.873 5.46812 31.8896 5.46051 31.9066C5.45816 31.9117 5.45559 31.9169 5.45324 31.922C5.4475 31.9353 5.44258 31.9489 5.4373 31.9625C5.43098 31.9786 5.42488 31.9948 5.41926 32.0113C5.4168 32.0184 5.41398 32.0254 5.41176 32.0324C5.40766 32.0453 5.40461 32.0586 5.40086 32.0717C5.39652 32.0871 5.39219 32.1026 5.38855 32.1184C5.38633 32.1278 5.38363 32.1371 5.38164 32.1464C5.37918 32.1583 5.37766 32.1705 5.37555 32.1824C5.37285 32.1977 5.37016 32.2129 5.36805 32.2285C5.36652 32.24 5.36453 32.2514 5.36336 32.2629C5.36219 32.2735 5.36207 32.2841 5.36113 32.2947C5.35984 32.3103 5.35867 32.3257 5.35809 32.3414C5.35762 32.3543 5.35691 32.3672 5.3568 32.3801C5.3568 32.3828 5.35645 32.3855 5.35645 32.3882C5.35645 32.3955 5.35738 32.4026 5.3575 32.4099C5.35773 32.4254 5.35832 32.4408 5.35914 32.4564C5.35984 32.4692 5.36055 32.482 5.36172 32.4947C5.36266 32.5056 5.36395 32.5163 5.36523 32.5271C5.36699 32.5418 5.3691 32.5565 5.37145 32.5712C5.37332 32.5828 5.37508 32.5945 5.3773 32.6059C5.37953 32.6179 5.38188 32.6297 5.38457 32.6416C5.38773 32.6557 5.39137 32.6697 5.395 32.6837C5.3977 32.6942 5.40051 32.7046 5.40344 32.715C5.40707 32.7276 5.4107 32.74 5.41469 32.7524C5.41902 32.7658 5.42394 32.7789 5.42875 32.792C5.4325 32.8022 5.43637 32.8124 5.44035 32.8226C5.44527 32.8348 5.45008 32.847 5.45535 32.8591C5.46062 32.8712 5.46648 32.8832 5.47223 32.8952C5.4775 32.906 5.48289 32.9168 5.4884 32.9276C5.49437 32.939 5.50023 32.9503 5.50656 32.9616C5.51254 32.9723 5.51875 32.9827 5.52508 32.9932C5.53211 33.005 5.53949 33.0166 5.54699 33.028C5.55391 33.0387 5.56105 33.0491 5.56832 33.0596C5.57476 33.0687 5.58109 33.0778 5.58789 33.087C5.59656 33.0987 5.60547 33.1101 5.61461 33.1216C5.62293 33.1319 5.6316 33.1418 5.64015 33.1519C5.64508 33.1577 5.64918 33.1637 5.65433 33.1695L29.2711 59.6082C29.3001 59.6407 29.331 59.6713 29.3631 59.7C29.3678 59.7041 29.3728 59.7076 29.3775 59.7117C29.4114 59.7411 29.4469 59.7682 29.4836 59.7934C29.4955 59.8016 29.5077 59.8093 29.5199 59.8171C29.5541 59.8386 29.5893 59.8583 29.6254 59.8764C29.6353 59.8813 29.6448 59.8868 29.6549 59.8915C29.7005 59.9124 29.7472 59.9304 29.7953 59.9455C29.8068 59.9491 29.8185 59.9517 29.8301 59.9549C29.8686 59.9656 29.9078 59.9744 29.9474 59.9813C29.9619 59.9838 29.9763 59.9864 29.991 59.9884C30.0422 59.9952 30.0936 59.9999 30.146 59.9999C30.1473 59.9999 30.1485 59.9999 30.1497 59.9999C30.2022 59.9998 30.2538 59.9948 30.3052 59.9878C30.3198 59.9858 30.3341 59.9832 30.3488 59.9807C30.3885 59.9736 30.4279 59.9647 30.4665 59.9537C30.4781 59.9504 30.4899 59.9478 30.5013 59.9441C30.5494 59.9289 30.5963 59.9106 30.642 59.8892C30.6519 59.8846 30.6614 59.879 30.6713 59.8741C30.7075 59.856 30.7427 59.8359 30.777 59.814C30.7893 59.8062 30.8013 59.7983 30.8134 59.79C30.8497 59.7648 30.8849 59.7377 30.9184 59.7084C30.9234 59.704 30.929 59.7001 30.934 59.6957C30.9661 59.6665 30.997 59.6357 31.0261 59.6027L54.3498 33.165C54.354 33.1602 54.3574 33.1551 54.3615 33.1503C54.3693 33.1412 54.377 33.1321 54.3845 33.1228C54.3946 33.1103 54.4042 33.0977 54.4137 33.0848C54.4202 33.0759 54.4267 33.0669 54.433 33.0579C54.4396 33.0485 54.4459 33.0389 54.4522 33.0293C54.4604 33.0168 54.4682 33.0041 54.4759 32.9914C54.4822 32.9808 54.4885 32.9705 54.4945 32.9598C54.5001 32.9496 54.5054 32.9393 54.5108 32.9289C54.5168 32.9173 54.5225 32.9055 54.5282 32.8936C54.534 32.8814 54.54 32.8694 54.5454 32.8571C54.5502 32.846 54.5544 32.8349 54.5589 32.8238C54.5632 32.8129 54.5673 32.8019 54.5713 32.7907C54.5762 32.7773 54.5814 32.7638 54.5858 32.7502C54.5894 32.7389 54.5925 32.7276 54.5959 32.7162C54.5992 32.705 54.602 32.6936 54.6049 32.6822C54.6085 32.6679 54.6125 32.6537 54.6156 32.6392C54.6179 32.6286 54.6199 32.6178 54.6219 32.6069C54.6242 32.5943 54.6261 32.5817 54.6281 32.569C54.6303 32.5543 54.6327 32.5396 54.6344 32.5247C54.6356 32.5151 54.6367 32.5054 54.6375 32.4957C54.6388 32.4816 54.6394 32.4675 54.6402 32.4532C54.641 32.4381 54.6417 32.423 54.6419 32.408C54.6421 32.4017 54.6429 32.3955 54.6429 32.3891C54.6432 32.3857 54.6429 32.3832 54.6429 32.3805ZM44.674 21.1229L40.8692 30.2023L32.646 21.1229H44.674ZM27.3722 21.1229L19.2234 30.215L15.347 21.1229H27.3722ZM13.4225 22.5936L17.0983 31.2149H8.54264L13.4225 22.5936ZM9.15178 33.5619H18.0988L26.2691 52.724L9.15178 33.5619ZM30.1371 55.8122L20.6501 33.5619H25.3059C25.9539 33.5619 26.4794 33.0366 26.4794 32.3884C26.4794 31.7403 25.9539 31.2149 25.3059 31.2149H21.479L30.0045 21.7024L38.6199 31.2149H34.6939C34.0459 31.2149 33.5204 31.7403 33.5204 32.3884C33.5204 33.0366 34.0459 33.5619 34.6939 33.5619H39.4614L30.1371 55.8122ZM33.9861 52.7001L42.0062 33.5619H50.8697L33.9861 52.7001ZM42.9895 31.2149L46.595 22.6113L51.4584 31.2149H42.9895Z" fill="#181818" />
</svg>