<svg width="60" height="60" viewBox="0 0 60 60" fill="none" xmlns="http://www.w3.org/2000/svg">
  <g clip-path="url(#clip0_34_2004)">
    <path d="M20.8357 24.2486C21.2939 23.7903 21.2939 23.0483 20.8357 22.5915C20.3789 22.1332 19.6368 22.1332 19.1786 22.5915C18.7204 23.0483 18.7204 23.7903 19.1786 24.2486C19.6368 24.7054 20.3789 24.7054 20.8357 24.2486Z" fill="#399A3A" />
    <path d="M32.4374 25.9058C33.808 24.5353 33.808 22.3051 32.4374 20.9345C31.0637 19.5608 28.839 19.5603 27.4652 20.9345C26.091 22.3083 26.091 24.5316 27.4652 25.9058C28.8358 27.2764 31.0664 27.2768 32.4374 25.9058ZM29.1223 22.5916C29.5805 22.1339 30.3221 22.1339 30.7803 22.5916C31.2367 23.0485 31.2367 23.7914 30.7803 24.2483C30.323 24.7051 29.5792 24.7056 29.1223 24.2483C28.665 23.7914 28.6632 23.0508 29.1223 22.5916Z" fill="#181818" />
    <path d="M27.4652 34.1913C26.091 35.5655 26.091 37.7897 27.4652 39.1639C28.839 40.5377 31.0632 40.5382 32.4374 39.1639C33.8084 37.7929 33.8084 35.5623 32.4374 34.1913C31.0637 32.818 28.839 32.8175 27.4652 34.1913ZM30.7803 37.5068C30.3221 37.9646 29.5801 37.9646 29.1223 37.5068C28.665 37.0495 28.6632 36.308 29.1223 35.8488C29.5805 35.3906 30.3221 35.3911 30.7803 35.8488C31.2372 36.3057 31.2372 37.0495 30.7803 37.5068Z" fill="#181818" />
    <path d="M20.5153 31.9359C20.6421 32.5712 21.2601 32.9819 21.8941 32.8551L38.4665 29.5399C39.1009 29.4131 39.5125 28.7956 39.3857 28.1611C39.2589 27.5262 38.6413 27.1152 38.0069 27.242L21.4345 30.5571C20.7996 30.6839 20.388 31.3014 20.5153 31.9359Z" fill="#181818" />
    <path d="M35.6263 6.62988C35.3154 6.62988 35.0174 6.75302 34.7977 6.97275L22.4944 19.276C22.0367 19.7338 22.0367 20.4758 22.4944 20.9336C22.9522 21.3914 23.6942 21.3914 24.1515 20.9336L35.6263 9.45886L50.5411 24.3741L24.2325 50.6827L9.31726 35.7679L17.5227 27.5625C17.9804 27.1052 17.9804 26.3631 17.5227 25.9054C17.0649 25.4481 16.3229 25.4481 15.8651 25.9054L6.8316 34.9393C6.37384 35.3966 6.37384 36.1387 6.8316 36.5964L23.404 53.1688C23.8618 53.6266 24.6033 53.6266 25.0611 53.1688L53.0272 25.2027C53.485 24.7449 53.485 24.0029 53.0272 23.5451L36.4548 6.97275C36.2351 6.75302 35.9371 6.62988 35.6263 6.62988Z" fill="#399A3A" />
    <path d="M57.9981 0.343786L52.9682 5.37323C50.0335 3.1572 45.9809 3.12103 43.0709 5.28167L38.951 1.04233C38.9469 1.03821 38.9433 1.03455 38.9391 1.03043C37.5723 -0.33645 35.3494 -0.351099 33.966 1.03226L1.02951 34.1107C-0.344242 35.4844 -0.344699 37.7091 1.02951 39.0834L5.67763 43.731C4.63942 46.7024 5.38832 50.071 7.65837 52.3402C9.92796 54.6107 13.2966 55.3591 16.268 54.3218L20.9161 58.9695C22.2899 60.3432 24.5155 60.3428 25.8865 58.9713L58.9686 26.0312C60.3428 24.6569 60.3428 22.4336 58.9686 21.0598C58.9644 21.0557 58.9608 21.0521 58.9567 21.0479L54.7178 16.929C56.8706 14.0387 56.8624 9.98427 54.6258 7.03079L59.6552 2.00135C60.113 1.54358 60.113 0.801549 59.6552 0.343786C59.1974 -0.113977 58.4559 -0.113977 57.9981 0.343786ZM52.2816 16.1719C52.06 16.3939 51.9364 16.6951 51.9382 17.0091C51.9405 17.3227 52.0687 17.6225 52.2935 17.8409L57.316 22.722C57.7706 23.1816 57.7656 23.9195 57.3128 24.3718L24.2312 57.3119C23.7739 57.7692 23.0301 57.7692 22.5732 57.3119L17.3758 52.1149C17.1515 51.8902 16.8512 51.7716 16.5472 51.7716C16.3788 51.7716 16.2089 51.8078 16.0496 51.8824C13.7961 52.9398 11.0898 52.4578 9.31593 50.6826C7.54073 48.9088 7.0587 46.2029 8.11613 43.9494C8.32579 43.5021 8.23332 42.972 7.88405 42.6228L2.68707 37.4258C2.22976 36.9685 2.22976 36.2251 2.68844 35.7659L35.6254 2.68753C36.0813 2.23206 36.8183 2.22931 37.277 2.6825L42.1577 7.70507C42.5953 8.15551 43.3447 8.19946 43.8271 7.71743C45.8331 5.7106 48.9742 5.49637 51.2882 7.05322L49.5693 8.77212C48.2624 8.14956 46.6483 8.37798 45.568 9.4583C44.1975 10.8293 44.1975 13.06 45.568 14.4305C46.9418 15.8043 49.1665 15.8047 50.5407 14.4305C51.6457 13.3255 51.8394 11.7045 51.2283 10.4278L52.9467 8.7094C54.4916 10.9964 54.3136 14.1403 52.2816 16.1719ZM48.8831 11.1154C49.3404 11.5727 49.3423 12.3143 48.8831 12.7734C48.4254 13.2312 47.6833 13.2312 47.2256 12.7734C46.7683 12.3161 46.7683 11.5723 47.2251 11.1154C47.6824 10.659 48.4263 10.6581 48.8831 11.1154Z" fill="#181818" />
  </g>
  <defs>
    <clipPath id="clip0_34_2004">
      <rect width="60" height="59.9999" fill="white" />
    </clipPath>
  </defs>
</svg>