<svg width="60" height="60" viewBox="0 0 60 60" fill="none" xmlns="http://www.w3.org/2000/svg">
  <g clip-path="url(#clip0_34_2014)">
    <path d="M42.1665 29.5188C45.0261 25.436 46.5377 20.6432 46.5377 15.6586V4.54503C46.5377 3.99617 46.1564 3.52055 45.6208 3.40107L30.4889 0.0278092C30.3209 -0.00926972 30.147 -0.00926972 29.979 0.0278092L14.8476 3.40107C14.3115 3.52055 13.9307 3.99617 13.9307 4.54503V15.6586C13.9307 20.6432 15.4422 25.436 18.3019 29.5184C21.1615 33.6012 25.1491 36.6595 29.8339 38.3633C29.9629 38.41 30.0989 38.4338 30.2339 38.4338C30.3694 38.4338 30.5054 38.41 30.6345 38.3633C35.3192 36.6599 39.3068 33.6012 42.1665 29.5188ZM30.2339 36.0104C26.1772 34.4462 22.7216 31.7436 20.2217 28.1739C17.6395 24.4875 16.2744 20.1598 16.2744 15.6586V5.48436L30.2339 2.37248L44.1939 5.48436V15.6586C44.1939 20.1594 42.8289 24.4871 40.2466 28.1739C37.7463 31.7436 34.2906 34.4462 30.2339 36.0104Z" fill="#181818" />
    <path d="M42.2004 8.02183C42.2004 7.47252 41.8196 6.99736 41.2835 6.87788L30.4894 4.47141C30.3214 4.43433 30.147 4.43433 29.979 4.47141L19.1845 6.87788C18.5528 7.01887 18.155 7.64509 18.296 8.27681C18.4365 8.90852 19.0632 9.30632 19.6944 9.16533L30.234 6.81608L39.8567 8.96117V15.6587C39.8567 19.265 38.7631 22.7321 36.6944 25.686C35.0323 28.0591 32.8066 29.9817 30.234 31.274C27.6614 29.9822 25.4362 28.0591 23.774 25.686C21.9846 23.1313 20.9098 20.1448 20.6663 17.0503C20.6457 16.7921 20.631 16.5312 20.6223 16.274C20.5999 15.6267 20.0538 15.1208 19.4106 15.1428C18.7638 15.1652 18.2575 15.7077 18.28 16.3545C18.29 16.6461 18.3065 16.9423 18.3294 17.2343C18.6059 20.7458 19.8249 24.1333 21.8542 27.0305C23.8587 29.892 26.5861 32.1771 29.7419 33.6383C29.898 33.7107 30.0665 33.7468 30.2345 33.7468C30.4025 33.7468 30.5705 33.7107 30.7266 33.6383C33.8829 32.1767 36.6102 29.892 38.6143 27.0305C40.9603 23.681 42.2009 19.7484 42.2009 15.6587V8.02183H42.2004Z" fill="#399A3A" />
    <path d="M26.8959 21.7419C27.101 21.9846 27.3953 22.1333 27.7125 22.1544C27.7386 22.1562 27.7647 22.1571 27.7908 22.1571C28.0801 22.1571 28.3607 22.05 28.5768 21.8546L37.0729 14.1678C37.5526 13.7338 37.5897 12.9927 37.1558 12.5125C36.7213 12.0328 35.9802 11.9957 35.5005 12.4296L27.903 19.303L25.7345 16.7381C25.3171 16.2442 24.5773 16.1819 24.0834 16.5999C23.589 17.0178 23.5272 17.7571 23.9447 18.2515L26.8959 21.7419Z" fill="#181818" />
    <path d="M20.3663 38.7837C19.7488 37.9716 18.8511 37.4552 17.839 37.3289C16.8269 37.203 15.8299 37.4827 15.0315 38.1176C14.658 38.4147 14.3563 38.7708 14.1288 39.1631L13.7846 38.7145C13.4788 38.3167 13.3108 37.8214 13.3108 37.3197V26.7477C13.3108 24.5879 11.5534 22.8306 9.39371 22.8306C7.36216 22.8306 5.68582 24.3558 5.49402 26.3778L4.23975 39.6058C4.12942 40.7644 4.45627 41.9138 5.16351 42.8477L15.1245 55.818V58.8282C15.1245 59.4755 15.6491 60.0001 16.2963 60.0001C16.9432 60.0001 17.4682 59.4755 17.4682 58.8282V55.4197C17.4682 55.1615 17.3826 54.9107 17.2256 54.7061L7.02707 41.4263C6.67963 40.9676 6.5185 40.3996 6.57297 39.8269L7.8277 26.5993C7.90461 25.7868 8.57798 25.1743 9.39371 25.1743C10.2616 25.1743 10.9671 25.8802 10.9671 26.7477V37.3197C10.9671 38.335 11.3076 39.3371 11.9261 40.1418L14.3792 43.3366C14.3829 43.3416 14.3866 43.3466 14.3902 43.3517L16.3696 45.9294C16.7642 46.4425 17.4998 46.5391 18.013 46.145C18.5261 45.7508 18.6227 45.0152 18.2286 44.5016L16.2428 41.9157C15.7827 41.3069 15.8926 40.4279 16.4914 39.9519C16.7921 39.7125 17.1679 39.6072 17.5492 39.6543C17.9306 39.7019 18.2689 39.8969 18.5014 40.2027L23.2324 46.4201C24.1635 47.6437 24.6762 49.1644 24.6762 50.702V58.8282C24.6762 59.4755 25.2008 60.0001 25.8481 60.0001C26.4953 60.0001 27.0199 59.4755 27.0199 58.8282V50.702C27.0199 48.6549 26.3374 46.6302 25.0978 45.001L20.3663 38.7837Z" fill="#181818" />
    <path d="M55.9008 39.6058L54.646 26.3778C54.4542 24.3558 52.7774 22.8306 50.7463 22.8306C48.5866 22.8306 46.8293 24.5879 46.8293 26.7477V37.3197C46.8293 37.8214 46.6608 38.3167 46.3555 38.7145L46.0108 39.1631C45.7837 38.7713 45.4821 38.4152 45.1085 38.1176C44.3102 37.4827 43.3132 37.203 42.301 37.3289C41.2889 37.4552 40.3913 37.9716 39.7737 38.7837L35.0427 45.001C33.8031 46.6302 33.1201 48.6549 33.1201 50.7025V58.8282C33.1201 59.4755 33.6452 60.0001 34.292 60.0001C34.9393 60.0001 35.4639 59.4755 35.4639 58.8282V50.702C35.4639 49.1644 35.9766 47.6437 36.9077 46.4201L41.6387 40.2027C41.8717 39.8969 42.21 39.7024 42.5913 39.6543C42.9726 39.6072 43.3484 39.7125 43.6492 39.9519C44.2475 40.4279 44.3578 41.3069 43.8973 41.9157L41.9119 44.5016C41.5178 45.0152 41.6144 45.7508 42.1276 46.145C42.6407 46.5391 43.3763 46.4425 43.7709 45.9294L45.7498 43.3517C45.7535 43.3471 45.7567 43.3425 45.7604 43.338L48.2144 40.1423C48.8324 39.3371 49.173 38.335 49.173 37.3197V26.7477C49.173 25.8802 49.8789 25.1743 50.7463 25.1743C51.5621 25.1743 52.2355 25.7868 52.3128 26.5993L53.5675 39.8269C53.6216 40.4 53.4604 40.9676 53.1176 41.4204L42.9144 54.7061C42.7574 54.9107 42.6723 55.162 42.6723 55.4202V58.8282C42.6723 59.4755 43.1969 60.0001 43.8442 60.0001C44.4914 60.0001 45.016 59.4755 45.016 58.8282V55.818L54.9811 42.8417C55.6838 41.9138 56.0106 40.7644 55.9008 39.6058Z" fill="#181818" />
    <path d="M18.7889 13.1365C19.2014 13.4116 19.7598 13.3942 20.1526 13.0917C20.522 12.8069 20.6955 12.3098 20.571 11.8584C20.4378 11.3746 20.0047 11.0194 19.5017 10.9919C19.0036 10.9649 18.5335 11.2688 18.3508 11.7316C18.1503 12.2402 18.3357 12.8317 18.7889 13.1365Z" fill="#399A3A" />
  </g>
  <defs>
    <clipPath id="clip0_34_2014">
      <rect width="60" height="60" fill="white" />
    </clipPath>
  </defs>
</svg>